<svg width="166" height="177" viewBox="0 0 166 177" fill="none" xmlns="http://www.w3.org/2000/svg">
<path d="M107.55 6C121.09 6 133.94 11.48 143.74 21.43C153.63 31.47 159.07 44.73 159.07 58.79C159.07 87.89 135.39 111.57 106.29 111.57H86.73V154.31C86.73 163.16 79.5301 170.35 70.6901 170.35H6V14.32C6 9.73001 9.73007 6 14.3201 6H107.56M107.56 0H14.3201C6.41007 0 0 6.41001 0 14.32V176.35H70.6901C82.8601 176.35 92.73 166.48 92.73 154.31V117.57H106.29C138.76 117.57 165.07 91.25 165.07 58.79C165.07 26.32 138.75 0.0100098 107.54 0.0100098L107.56 0Z" fill="#00001B"/>
<path d="M107.55 18C117.85 18 127.66 22.21 135.19 29.85C142.85 37.63 147.07 47.9 147.07 58.78C147.07 81.27 128.77 99.56 106.29 99.56H74.73V154.3C74.73 156.53 72.9201 158.34 70.6901 158.34H18V17.99H107.56M107.56 11.99H14.3201C13.0401 11.99 12 13.03 12 14.31V164.34H70.6901C76.2301 164.34 80.73 159.83 80.73 154.3V105.56H106.29C132.09 105.56 153.07 84.57 153.07 58.78C153.07 46.31 148.24 34.54 139.46 25.64C130.79 16.84 119.46 12 107.54 12L107.56 11.99Z" fill="#00001B"/>
<path d="M107.55 30C114.61 30 121.39 32.94 126.64 38.27C132.08 43.79 135.07 51.07 135.07 58.78C135.07 74.65 122.16 87.56 106.29 87.56H62.73V146.34H30V29.99H107.56M107.56 23.99H24V152.34H68.73V93.56H106.29C125.47 93.56 141.07 77.96 141.07 58.78C141.07 49.49 137.46 40.71 130.91 34.06C124.52 27.57 116.22 24 107.54 24L107.56 23.99Z" fill="#00001B"/>
<path d="M107.55 30C114.61 30 121.39 32.94 126.64 38.27C132.08 43.79 135.07 51.07 135.07 58.78C135.07 74.65 122.16 87.56 106.29 87.56H62.73V146.34H30V29.99H107.56M107.56 23.99H24V152.34H68.73V93.56H106.29C125.47 93.56 141.07 77.96 141.07 58.78C141.07 49.49 137.46 40.71 130.91 34.06C124.52 27.57 116.22 24 107.54 24L107.56 23.99Z" fill="#00001B"/>
<path d="M107.55 42C111.37 42 115.11 43.67 118.1 46.69C121.31 49.95 123.08 54.24 123.08 58.78C123.08 68.03 115.55 75.56 106.3 75.56H50.7397V134.34H42.0098V41.99H107.57M107.57 35.99H36.0098V140.34H56.7397V81.56H106.3C118.86 81.56 129.08 71.34 129.08 58.78C129.08 52.66 126.7 46.87 122.37 42.48C118.25 38.3 112.99 36 107.55 36L107.57 35.99Z" fill="#00001B"/>
<path d="M107.55 42C111.37 42 115.11 43.67 118.1 46.69C121.31 49.95 123.08 54.24 123.08 58.78C123.08 68.03 115.55 75.56 106.3 75.56H50.7397V134.34H42.0098V41.99H107.57M107.57 35.99H36.0098V140.34H56.7397V81.56H106.3C118.86 81.56 129.08 71.34 129.08 58.78C129.08 52.66 126.7 46.87 122.37 42.48C118.25 38.3 112.99 36 107.55 36L107.57 35.99Z" fill="#00001B"/>
<path d="M107.55 45C110.56 45 113.54 46.35 115.96 48.8C118.62 51.49 120.08 55.04 120.08 58.78C120.08 66.38 113.9 72.56 106.3 72.56H47.7397V131.34H45.0098V44.99H107.57M107.57 41.99H42.0098V134.34H50.7397V75.56H106.3C115.55 75.56 123.08 68.03 123.08 58.78C123.08 54.24 121.31 49.95 118.1 46.69C115.12 43.66 111.37 42 107.56 42L107.57 41.99Z" fill="#00001B"/>
<path d="M107.55 45C110.56 45 113.54 46.35 115.96 48.8C118.62 51.49 120.08 55.04 120.08 58.78C120.08 66.38 113.9 72.56 106.3 72.56H47.7397V131.34H45.0098V44.99H107.57M107.57 41.99H42.0098V134.34H50.7397V75.56H106.3C115.55 75.56 123.08 68.03 123.08 58.78C123.08 54.24 121.31 49.95 118.1 46.69C115.12 43.66 111.37 42 107.56 42L107.57 41.99Z" fill="#00001B"/>
<path d="M107.55 51C108.94 51 110.41 51.71 111.68 53.01C113.22 54.57 114.07 56.63 114.07 58.78C114.07 63.07 110.58 66.56 106.29 66.56H50.9902V50.99H107.55M107.55 47.99H47.9902V69.56H106.29C112.24 69.56 117.07 64.72 117.07 58.78C117.07 55.83 115.91 53.03 113.82 50.9C111.98 49.03 109.75 48 107.55 48V47.99Z" fill="#00001B"/>
<path d="M107.55 51C108.94 51 110.41 51.71 111.68 53.01C113.22 54.57 114.07 56.63 114.07 58.78C114.07 63.07 110.58 66.56 106.29 66.56H50.9902V50.99H107.55M107.55 47.99H47.9902V69.56H106.29C112.24 69.56 117.07 64.72 117.07 58.78C117.07 55.83 115.91 53.03 113.82 50.9C111.98 49.03 109.75 48 107.55 48V47.99Z" fill="#00001B"/>
<path d="M106.28 57C107.26 57 108.06 57.8 108.06 58.78C108.06 59.76 107.26 60.56 106.28 60.56H56.9902V56.99H106.28M106.28 53.99H53.9902V63.56H106.28C108.92 63.56 111.06 61.42 111.06 58.78C111.06 56.14 108.92 54 106.28 54V53.99Z" fill="#00001B"/>
<path d="M164.08 58.78C164.08 26.31 137.76 0 106.55 0H100.56C94.3403 0 63.2002 27.15 51.8502 37.82C32.3702 56.14 1.12024 59.11 1.12024 75.52C1.12024 87.5 1.05023 88.23 0.990234 88.42V176.35H69.6803C81.8503 176.35 91.7202 166.48 91.7202 154.31V117.57H105.28C137.74 117.57 164.06 91.25 164.06 58.79L164.08 58.78Z" fill="#00001B"/>
<path d="M78.6597 38.41C78.0397 41.64 76.0297 51.27 74.4097 57.01C72.0597 65.36 69.6696 71.53 61.4996 75.07C56.5196 77.22 50.7896 75.36 45.3896 73.09C43.0996 72.12 40.7296 70.92 38.1396 69.92C36.7896 69.38 35.5297 68.85 34.3297 68.33C33.2797 67.87 32.2697 67.42 31.2897 66.99C28.7797 65.87 26.4697 64.85 24.0397 63.97C22.1497 63.29 20.1796 62.7 17.9996 62.24C15.7896 61.77 12.7797 61.72 9.65967 63.14C7.78967 63.99 5.88961 65.36 4.09961 67.49C6.62961 64.15 13.6497 58.78 17.8297 55.63C28.3897 47.66 38.8196 40.99 50.0096 33.16C58.9896 26.88 67.6897 20.49 77.6697 12.5C84.5597 6.99 92.4197 0.0199585 100.67 0.0199585C97.5297 0.389959 94.5496 2.48998 92.5096 4.66998C89.1096 8.29998 87.2296 12.88 86.3496 14.5C85.1896 16.64 84.1797 19.02 83.2797 21.5C82.1297 24.68 81.1796 28 80.3796 31.15C80.0696 32.38 79.7796 33.57 79.4996 34.72C79.1896 36.03 78.9096 37.28 78.6396 38.44L78.6597 38.41Z" fill="white"/>
</svg>
